# xmcd
#
# Track frame offsets:
#	150
#	13652
#	22472
#	34140
#	46377
#	56625
#	64445
#	73922
#	85352
#	95667
#	102247
#	115412
#	123840
#	133222
#	139415
#	151210
#
# Disc length: 2118 seconds
#
# Revision: 1
# Processed by: cddbd v1.4PL0 Copyright (c) Steve Scherf et al.
# Submitted via: EasyCDDAExtractor 5.0.7
#
DISCID=f6084410
DTITLE=Gene Autry - 16 Country Greats
DYEAR=1900
DGENRE=Country
TTITLE0=Mexicali Rose
TTITLE1=In A Little Spanish Town
TTITLE2=Vaya Con Dios
TTITLE3=South Of The Border
TTITLE4=San Antonio Rose
TTITLE5=Alla En El Rancho Grande
TTITLE6=It Happened In Monterey
TTITLE7=Lonely River
TTITLE8=Down In The Valley
TTITLE9=My Adobe Hacienda
TTITLE10=Under Fiesta Stars
TTITLE11=A Gay Ranchero
TTITLE12=There's No Backdoor To Heaven
TTITLE13=Cowboy Blues
TTITLE14=I Hang My Head And Cry
TTITLE15=Rancho Pillow
EXTD=
EXTT0=
EXTT1=
EXTT2=
EXTT3=
EXTT4=
EXTT5=
EXTT6=
EXTT7=
EXTT8=
EXTT9=
EXTT10=
EXTT11=
EXTT12=
EXTT13=
EXTT14=
EXTT15=
PLAYORDER=
